<mxfile host="app.diagrams.net" modified="2023-06-28T20:25:40.608Z" agent="Mozilla/5.0 (Windows NT 10.0; Win64; x64) AppleWebKit/537.36 (KHTML, like Gecko) Chrome/114.0.0.0 Safari/537.36" etag="2m7XDqWu79UgcAHOXq3Z" version="21.5.2" type="device">
  <diagram name="Page-1" id="hJEFw0tffrt_zQPYZ6jD">
    <mxGraphModel dx="1761" dy="544" grid="1" gridSize="10" guides="1" tooltips="1" connect="1" arrows="1" fold="1" page="1" pageScale="1" pageWidth="827" pageHeight="1169" math="0" shadow="0">
      <root>
        <mxCell id="0" />
        <mxCell id="1" parent="0" />
        <mxCell id="ZfVFdF3iBBqEDHRoWgo6-1" value="HLD" style="text;html=1;strokeColor=#9673a6;fillColor=#e1d5e7;align=center;verticalAlign=middle;whiteSpace=wrap;rounded=0;strokeWidth=4;perimeterSpacing=4;fillStyle=solid;" vertex="1" parent="1">
          <mxGeometry x="20" y="10" width="700" height="30" as="geometry" />
        </mxCell>
        <mxCell id="ZfVFdF3iBBqEDHRoWgo6-2" value="Actor" style="shape=umlActor;verticalLabelPosition=bottom;verticalAlign=top;html=1;outlineConnect=0;" vertex="1" parent="1">
          <mxGeometry x="10" y="130" width="20" height="50" as="geometry" />
        </mxCell>
        <mxCell id="ZfVFdF3iBBqEDHRoWgo6-5" value="Admin" style="text;html=1;strokeColor=none;fillColor=none;align=center;verticalAlign=middle;whiteSpace=wrap;rounded=0;" vertex="1" parent="1">
          <mxGeometry x="-10" y="190" width="60" height="30" as="geometry" />
        </mxCell>
        <mxCell id="ZfVFdF3iBBqEDHRoWgo6-7" value="" style="endArrow=classic;html=1;rounded=0;" edge="1" parent="1">
          <mxGeometry width="50" height="50" relative="1" as="geometry">
            <mxPoint x="40" y="140" as="sourcePoint" />
            <mxPoint x="90" y="140" as="targetPoint" />
          </mxGeometry>
        </mxCell>
        <mxCell id="ZfVFdF3iBBqEDHRoWgo6-12" value="" style="edgeStyle=orthogonalEdgeStyle;rounded=0;orthogonalLoop=1;jettySize=auto;html=1;" edge="1" parent="1" source="ZfVFdF3iBBqEDHRoWgo6-8" target="ZfVFdF3iBBqEDHRoWgo6-11">
          <mxGeometry relative="1" as="geometry" />
        </mxCell>
        <mxCell id="ZfVFdF3iBBqEDHRoWgo6-8" value="Package" style="swimlane;whiteSpace=wrap;html=1;" vertex="1" parent="1">
          <mxGeometry x="101" y="120" width="80" height="120" as="geometry">
            <mxRectangle x="101" y="120" width="90" height="30" as="alternateBounds" />
          </mxGeometry>
        </mxCell>
        <mxCell id="ZfVFdF3iBBqEDHRoWgo6-9" value="Itenaries / Destinations" style="swimlane;whiteSpace=wrap;html=1;startSize=30;" vertex="1" parent="1">
          <mxGeometry x="290" y="120" width="85" height="120" as="geometry" />
        </mxCell>
        <mxCell id="ZfVFdF3iBBqEDHRoWgo6-10" value="Activities" style="swimlane;whiteSpace=wrap;html=1;" vertex="1" parent="1">
          <mxGeometry x="460" y="120" width="80" height="120" as="geometry" />
        </mxCell>
        <mxCell id="ZfVFdF3iBBqEDHRoWgo6-11" value="Passengers" style="swimlane;whiteSpace=wrap;html=1;" vertex="1" parent="1">
          <mxGeometry x="101" y="320" width="80" height="130" as="geometry">
            <mxRectangle x="101" y="120" width="90" height="30" as="alternateBounds" />
          </mxGeometry>
        </mxCell>
        <mxCell id="ZfVFdF3iBBqEDHRoWgo6-16" value="" style="image;html=1;image=img/lib/clip_art/people/Suit_Man_Blue_128x128.png" vertex="1" parent="ZfVFdF3iBBqEDHRoWgo6-11">
          <mxGeometry y="30" width="30" height="20" as="geometry" />
        </mxCell>
        <mxCell id="ZfVFdF3iBBqEDHRoWgo6-17" value="" style="image;html=1;image=img/lib/clip_art/people/Construction_Worker_Man_128x128.png" vertex="1" parent="ZfVFdF3iBBqEDHRoWgo6-11">
          <mxGeometry x="33.88" y="25" width="35" height="25" as="geometry" />
        </mxCell>
        <mxCell id="ZfVFdF3iBBqEDHRoWgo6-18" value="" style="image;html=1;image=img/lib/clip_art/people/Doctor_Man_128x128.png" vertex="1" parent="ZfVFdF3iBBqEDHRoWgo6-11">
          <mxGeometry x="-5.25" y="52.5" width="40.5" height="27.5" as="geometry" />
        </mxCell>
        <mxCell id="ZfVFdF3iBBqEDHRoWgo6-19" value="" style="image;html=1;image=img/lib/clip_art/people/Security_Man_128x128.png" vertex="1" parent="ZfVFdF3iBBqEDHRoWgo6-11">
          <mxGeometry x="39" y="47.5" width="24.75" height="37.5" as="geometry" />
        </mxCell>
        <mxCell id="ZfVFdF3iBBqEDHRoWgo6-21" value="" style="image;html=1;image=img/lib/clip_art/people/Farmer_Man_Black_128x128.png" vertex="1" parent="ZfVFdF3iBBqEDHRoWgo6-11">
          <mxGeometry x="22.5" y="87.5" width="30" height="40" as="geometry" />
        </mxCell>
        <mxCell id="ZfVFdF3iBBqEDHRoWgo6-13" value="" style="endArrow=classic;html=1;rounded=0;" edge="1" parent="1">
          <mxGeometry width="50" height="50" relative="1" as="geometry">
            <mxPoint x="180" y="190" as="sourcePoint" />
            <mxPoint x="290" y="190" as="targetPoint" />
          </mxGeometry>
        </mxCell>
        <mxCell id="ZfVFdF3iBBqEDHRoWgo6-14" value="" style="endArrow=classic;html=1;rounded=0;exitX=1;exitY=0.5;exitDx=0;exitDy=0;entryX=0;entryY=0.5;entryDx=0;entryDy=0;" edge="1" parent="1" source="ZfVFdF3iBBqEDHRoWgo6-9" target="ZfVFdF3iBBqEDHRoWgo6-10">
          <mxGeometry width="50" height="50" relative="1" as="geometry">
            <mxPoint x="190" y="200" as="sourcePoint" />
            <mxPoint x="240" y="200" as="targetPoint" />
          </mxGeometry>
        </mxCell>
        <mxCell id="ZfVFdF3iBBqEDHRoWgo6-30" value="1" style="text;html=1;align=center;verticalAlign=middle;resizable=0;points=[];autosize=1;strokeColor=none;fillColor=none;" vertex="1" parent="1">
          <mxGeometry x="170" y="165" width="30" height="30" as="geometry" />
        </mxCell>
        <mxCell id="ZfVFdF3iBBqEDHRoWgo6-32" value="N" style="text;html=1;align=center;verticalAlign=middle;resizable=0;points=[];autosize=1;strokeColor=none;fillColor=none;" vertex="1" parent="1">
          <mxGeometry x="260" y="165" width="30" height="30" as="geometry" />
        </mxCell>
        <mxCell id="ZfVFdF3iBBqEDHRoWgo6-33" value="1" style="text;html=1;align=center;verticalAlign=middle;resizable=0;points=[];autosize=1;strokeColor=none;fillColor=none;" vertex="1" parent="1">
          <mxGeometry x="370" y="160" width="30" height="30" as="geometry" />
        </mxCell>
        <mxCell id="ZfVFdF3iBBqEDHRoWgo6-34" value="N" style="text;html=1;align=center;verticalAlign=middle;resizable=0;points=[];autosize=1;strokeColor=none;fillColor=none;" vertex="1" parent="1">
          <mxGeometry x="430" y="160" width="30" height="30" as="geometry" />
        </mxCell>
      </root>
    </mxGraphModel>
  </diagram>
</mxfile>
